<?xml version="1.0" encoding="UTF-8" standalone="no"?>
<svg
   xmlns:dc="http://purl.org/dc/elements/1.1/"
   xmlns:cc="http://creativecommons.org/ns#"
   xmlns:rdf="http://www.w3.org/1999/02/22-rdf-syntax-ns#"
   xmlns:svg="http://www.w3.org/2000/svg"
   xmlns="http://www.w3.org/2000/svg"
   xmlns:sodipodi="http://sodipodi.sourceforge.net/DTD/sodipodi-0.dtd"
   xmlns:inkscape="http://www.inkscape.org/namespaces/inkscape"
   height="362.68085"
   width="275"
   inkscape:version="1.0 (4035a4fb49, 2020-05-01)"
   sodipodi:docname="version 3-edit.svg"
   id="svg89"
   version="1.1"
   viewBox="0 0 275.00001 362.68086">
  <metadata
     id="metadata93">
    <rdf:RDF>
      <cc:Work
         rdf:about="">
        <dc:format>image/svg+xml</dc:format>
        <dc:type
           rdf:resource="http://purl.org/dc/dcmitype/StillImage" />
        <dc:title></dc:title>
      </cc:Work>
    </rdf:RDF>
  </metadata>
  <sodipodi:namedview
     fit-margin-bottom="0"
     fit-margin-right="0"
     fit-margin-left="0"
     fit-margin-top="0"
     inkscape:current-layer="svg89"
     inkscape:window-maximized="0"
     inkscape:window-y="0"
     inkscape:window-x="0"
     inkscape:cy="314.44106"
     inkscape:cx="184.43911"
     inkscape:zoom="1.7752716"
     showgrid="false"
     id="namedview91"
     inkscape:window-height="1010"
     inkscape:window-width="1540"
     inkscape:pageshadow="2"
     inkscape:pageopacity="0"
     guidetolerance="10"
     gridtolerance="10"
     objecttolerance="10"
     borderopacity="1"
     bordercolor="#666666"
     pagecolor="#ffffff" />
  <defs
     id="defs7">
    <style
       id="style2">.cls-1{fill:none;}.cls-2{fill:#f57f20;}.cls-3{fill:#d6b096;}.cls-4{fill:#ba9983;}.cls-5{clip-path:url(#clip-path);}.cls-6{fill:#cd4827;}.cls-7{fill:#f26323;}.cls-8{fill:#2c1e15;}.cls-9{fill:#231f20;}.cls-10{fill:#414042;}.cls-11{fill:#c2c1c0;}.cls-12{fill:#fff;}.cls-13{fill:#e2d6c1;}.cls-14{fill:#261d16;}.cls-15{fill:#db1e34;}.cls-16{fill:#2e2d2d;}</style>
    <clipPath
       transform="translate(0 -49.74)"
       id="clip-path">
      <polygon
         id="polygon4"
         points="159.35,330.06 314.05,246.08 310.02,5.23 13.44,0 1.41,246.08 "
         class="cls-1" />
    </clipPath>
  </defs>
  <circle
     id="circle94"
     r="47.985313"
     cy="263.05109"
     cx="53.974472"
     class="cls-3"
     style="fill:#ffffff;stroke-width:0.80486" />
  <g
     transform="matrix(0.75747293,0,0,0.75747293,-5.4791834e-4,0.00281479)"
     data-name="Layer 2"
     id="Layer_2">
    <g
       data-name="Layer 1"
       id="Layer_1-2">
      <path
         id="path9"
         transform="translate(0,-49.74)"
         d="m 157.73,106.6 a 90.33,90.33 0 0 1 17.5,1.25 c 5.83,1 10,-0.49 13.6,-5.59 10.46,-14.63 21.75,-28.62 34.67,-41.2 a 67.9,67.9 0 0 1 10.72,-8.94 c 5.87,-3.74 9,-3.2 13,2.48 5.1,7.32 7.83,15.7 9.92,24.24 a 141,141 0 0 1 4.15,35 149.64,149.64 0 0 1 -5.29,38.91 15.66,15.66 0 0 0 1.8,12.83 119.42,119.42 0 0 1 11.2,25.94 c 2.61,8.4 1.42,10.14 -7.3,11.47 -9.67,1.48 -19.21,3.51 -28.76,5.68 -22.45,5.09 -39.55,17.3 -51.56,36.83 -1.65,2.69 -3.39,5.32 -5.12,8 -4.19,6.4 -10.15,9.6 -16.12,9.61"
         class="cls-2" />
      <path
         id="path11"
         transform="translate(0,-49.74)"
         d="m 162.07,336.93 c 3.16,6.25 6.07,12 9,17.7 10.78,21.37 21.59,42.69 32.29,64.16 1.59,3.18 3,3.8 5.39,2.52 q 48.12,-26.06 96.29,-51.84 c 0.91,-0.49 1.84,-0.88 3,-1.42 V 372 c 0,38.45 0,35.9 0,74.35 0,3 -0.52,4.21 -2.24,5.14 q -70.5,37.77 -141,75.71 c -0.84,0.46 -1.71,0.84 -2.75,1.34 z"
         class="cls-3" />
      <path
         id="path13"
         transform="translate(0,-49.74)"
         d="m 165.41,333 35.66,-19.16 q 52,-27.93 104,-55.92 c 1.72,-0.93 2.73,-0.73 3.95,1.71 q 19.25,38.37 38.65,76.53 c 0.37,0.74 0.7,1.54 1.2,2.65 l -19.71,10.61 q -60,32.25 -120,64.54 c -1.65,0.89 -2.59,0.67 -3.77,-1.69 Q 185.92,373.48 166.3,334.9 c -0.25,-0.51 -0.46,-1 -0.89,-1.9 z"
         class="cls-4" />
      <path
         id="path15"
         transform="translate(0,-49.74)"
         d="m 361.38,177.56 c -9.06,-2 -18.13,-4 -27.19,-6.11 q -29.87,-6.82 -59.73,-13.71 l -12,-2.73 c 1,11 5.37,21.18 10.84,30.73 3.73,6.51 9.68,16.39 0.7,21.56 -3.29,1.89 -7.35,2.21 -11,2.55 a 108.5,108.5 0 0 0 -14.9,2.16 c -6.45,1.5 -12.74,3.57 -19.11,5.37 -4.84,1.36 -9.64,2.82 -13.82,5.56 l 10.52,3.06 q 37.09,10.78 74.18,21.65 c 1.61,0.47 2.82,0.07 4.16,-1.48 q 19.89,-23.1 39.88,-46 l 19.14,-22.05 c -0.96,-0.33 -1.31,-0.48 -1.67,-0.56 z"
         class="cls-4" />
      <g
         id="g61"
         clip-path="url(#clip-path)"
         class="cls-5">
        <path
           id="path17"
           transform="translate(0,-49.74)"
           d="m 160.14,263.07 c -6,0 -12,-3.18 -16.23,-9.56 -1.75,-2.62 -3.54,-5.23 -5.15,-7.94 C 126.46,224.89 108,213.09 84.84,208 c -8.9,-1.95 -17.83,-3.7 -26.85,-5.08 -8.24,-1.26 -9.12,-2.91 -6.92,-10.8 a 102.67,102.67 0 0 1 10.76,-25.57 c 3,-4.94 3.39,-9.73 2,-15.21 C 57,124.54 57.07,97.8 65.22,71.23 a 67.14,67.14 0 0 1 6.3,-14.56 c 4.79,-8.09 8.45,-8.9 16,-3.4 9.39,6.8 16.85,15.57 24.35,24.28 a 268.5,268.5 0 0 1 19.37,24.73 c 3.45,5.1 7.77,6.6 13.65,5.58 a 112,112 0 0 1 14.36,-1.29"
           class="cls-6" />
        <path
           id="path19"
           transform="translate(0,-49.74)"
           d="m 72.23,111.08 c 1.19,8.23 1.22,17.22 3.53,25.93 2,7.53 4.5,8.84 11.74,5.94 9.19,-3.68 17.27,-9.16 24.92,-15.35 5.5,-4.46 6.66,-8.95 3.45,-15.3 a 143.26,143.26 0 0 0 -7.45,-13 C 102.68,90.38 96.9,81.41 88.62,74.56 83.38,70.28 81.11,71 78.33,77.4 c -4.61,10.54 -5.06,21.84 -6.1,33.68 z"
           class="cls-6" />
        <path
           id="path21"
           transform="translate(0,-49.74)"
           d="M 247.15,110.42 A 77,77 0 0 0 242,77.71 c -2.51,-6.51 -6.11,-7.54 -10.81,-3 -11.4,10.92 -20,24 -27,37.95 -3.33,6.59 -2.38,10 3.26,14.92 5.91,5.13 12.68,9.06 19.53,12.8 a 29.66,29.66 0 0 0 9.73,3.68 c 4.13,0.63 6.68,-0.73 7.43,-5.1 1.57,-9.49 3.86,-18.88 3.01,-28.54 z"
           class="cls-6" />
        <path
           id="path23"
           transform="translate(0,-49.74)"
           d="m 159.88,256.89 c 6.89,0.08 13,-5.48 12.86,-11.78 -0.09,-5.39 -5.36,-9.62 -12.28,-9.84 -7.16,-0.23 -13.13,4.32 -13.13,10 0,6.03 5.94,11.54 12.55,11.62 z"
           class="cls-6" />
        <path
           id="path25"
           transform="translate(0,-49.74)"
           d="m 108.79,177.45 c -2.2,0 -3.4,0.6 -3.42,2 0,2 1.47,2.24 3,2.59 8.58,1.94 17.05,4.21 24.53,9.13 1.46,1 3,3 4.7,1.07 1.88,-2.16 -0.5,-3.65 -1.83,-4.9 -7.55,-7.15 -17,-9.29 -26.98,-9.89 z"
           class="cls-6" />
        <path
           id="path27"
           transform="translate(0,-49.74)"
           d="m 212,177.36 c -2.61,0.26 -4.61,0.36 -6.58,0.66 -8.37,1.3 -16.12,4 -22.11,10.38 -1.06,1.14 -2.15,2.38 -0.85,3.88 1.13,1.3 2.41,0.55 3.53,-0.26 7.74,-5.59 16.73,-8 25.83,-10 1.59,-0.36 3.2,-0.82 3,-2.6 -0.2,-1.78 -1.91,-2.01 -2.82,-2.06 z"
           class="cls-6" />
        <path
           id="path29"
           transform="translate(0,-49.74)"
           d="m 232.23,323.65 a 650.5,650.5 0 0 1 -147.93,0 c 0.85,-6 1.74,-12.09 2.53,-18.15 q 3.35,-25.77 6.62,-51.56 c 1.57,-10.24 0,-20.76 0.84,-31.07 a 11.06,11.06 0 0 1 0.3,-2.88 c 0.27,-0.7 0.21,-0.63 1.08,-0.46 a 20.69,20.69 0 0 1 2.06,0.52 50.78,50.78 0 0 1 7.69,3.31 c 5.24,2.6 10.59,5.28 14.61,9.53 4.02,4.25 8.54,9.08 11.45,14.05 2.91,4.97 7.81,12.72 12.25,16.34 9.06,7.38 20.68,8.26 29.45,2.72 a 25.89,25.89 0 0 0 8.13,-7.44 c 6.17,-9 9.06,-15.08 14.93,-20.73 4.32,-4.14 16.22,-14.59 22.22,-16.75 1.43,9.17 3.28,23.94 4.67,32.86 0.12,2 0.12,4 0.38,5.94 q 4.34,31.89 8.72,63.77 z"
           class="cls-7" />
        <path
           id="path31"
           transform="translate(0,-49.74)"
           d="m 108.79,177.45 c 10,0.6 19.43,2.74 27,9.86 1.33,1.25 3.71,2.74 1.83,4.9 -1.67,1.93 -3.24,-0.11 -4.7,-1.07 -7.48,-4.92 -16,-7.19 -24.53,-9.13 -1.54,-0.35 -3,-0.6 -3,-2.59 0,-1.37 1.2,-2.02 3.4,-1.97 z"
           class="cls-8" />
        <path
           id="path33"
           transform="translate(0,-49.74)"
           d="m 212,177.36 c 0.93,0 2.7,0.26 2.86,2.06 0.16,1.8 -1.45,2.24 -3,2.6 -9.1,2 -18.09,4.41 -25.83,10 -1.12,0.81 -2.4,1.56 -3.53,0.26 -1.3,-1.5 -0.21,-2.74 0.85,-3.88 6,-6.41 13.74,-9.08 22.11,-10.38 1.91,-0.3 3.91,-0.4 6.54,-0.66 z"
           class="cls-8" />
        <path
           id="path35"
           transform="translate(0,-49.74)"
           d="m 232.23,323.65 a 652.83,652.83 0 0 1 -72.1,4.22 653.31,653.31 0 0 1 -75.83,-4.22 c 0.85,-6 1.74,-12.09 2.53,-18.15 q 3.35,-25.77 6.62,-51.56 c 1.57,-10.24 0,-20.76 0.84,-31.07 a 11.06,11.06 0 0 1 0.3,-2.88 c 0.27,-0.7 0.21,-0.63 1.08,-0.46 a 20.69,20.69 0 0 1 2.06,0.52 50.78,50.78 0 0 1 7.69,3.31 c 5.24,2.6 10.59,5.28 14.61,9.53 4.02,4.25 8.54,9.08 11.45,14.05 2.91,4.97 7.81,12.72 12.25,16.34 a 27,27 0 0 0 16.4,6.29 23.25,23.25 0 0 0 13.05,-3.57 25.89,25.89 0 0 0 8.13,-7.44 c 6.17,-9 9.06,-15.08 14.93,-20.73 4.32,-4.14 16.22,-14.59 22.22,-16.75 1.43,9.17 3.28,23.94 4.67,32.86 0.12,2 0.12,4 0.38,5.94 q 4.34,31.89 8.72,63.77 z"
           class="cls-2" />
        <path
           id="path37"
           transform="translate(0,-49.74)"
           d="M 158.69,327.87 A 628.87,628.87 0 0 1 84.3,323.65 c 0.85,-6 1.74,-12.09 2.53,-18.15 q 3.35,-25.77 6.62,-51.56 c 1.57,-10.24 0,-20.76 0.84,-31.07 a 11.06,11.06 0 0 1 0.3,-2.88 c 0.27,-0.7 0.21,-0.63 1.08,-0.46 a 20.69,20.69 0 0 1 2.06,0.52 50.78,50.78 0 0 1 7.69,3.31 c 5.24,2.6 10.59,5.28 14.61,9.53 4.02,4.25 8.54,9.08 11.45,14.05 2.91,4.97 7.81,12.72 12.25,16.34 5,4.07 10.17,6.14 15.82,6.27"
           class="cls-6" />
        <path
           id="path39"
           transform="translate(0,-49.74)"
           d="m 73.05,156.75 c 3.7,-0.64 5.7,-1.35 6,-1.72 3.81,-2.52 4.73,-3.27 8.62,-5.68 2.08,-1.74 3.08,-2.18 4.62,-3.31 1.08,-0.79 2.18,-1.55 3.29,-2.3 q 2.53,-1.78 5,-3.63 c 1.33,-1 2.33,-1.79 4.8,-3.77 4.84,-3.88 9.6,-7.87 14.42,-11.77 6.12,-4.95 12.33,-9.82 18.79,-14.3 v -0.07 c 0,-0.18 0,-0.32 0,-0.43 l -0.18,-0.89 c -0.08,-0.4 -0.14,-0.79 -0.19,-1.18 a 12.39,12.39 0 0 1 -6.94,-5.42 268.5,268.5 0 0 0 -19.37,-24.73 c -7.5,-8.71 -15,-17.48 -24.35,-24.28 -7.6,-5.5 -11.26,-4.69 -16,3.4 a 67.14,67.14 0 0 0 -6.3,14.56 c -8.19,26.57 -8.26,53.31 -1.43,80.11 0.47,1.87 2.75,3.86 2.77,5.59 a 8.41,8.41 0 0 0 3.2,-0.05"
           class="cls-9" />
        <path
           id="path41"
           transform="translate(0,-49.74)"
           d="m 78.33,77.4 c 2.78,-6.36 5,-7.12 10.29,-2.79 8.28,6.85 14.06,15.82 19.8,24.74 a 143.26,143.26 0 0 1 7.45,13 c 3.21,6.35 2,10.84 -3.45,15.3 -7.65,6.19 -15.73,11.67 -24.92,15.35 -7.24,2.9 -9.73,1.59 -11.74,-5.94 -2.31,-8.71 -2.34,-17.7 -3.53,-25.93 1.04,-11.89 1.49,-23.19 6.1,-33.73 z"
           class="cls-9" />
        <path
           id="path43"
           transform="translate(0,-49.74)"
           d="m 185,111 a 37,37 0 0 0 1.85,3.32 74.6,74.6 0 0 1 8.63,9.12 c 3.21,3.3 6.31,6.72 9.47,10.13 0.22,0.2 0.43,0.41 0.65,0.6 l 1.49,1.32 0.55,0.4 a 152,152 0 0 0 17.34,9.29 c 0.34,0.16 2,0.89 2.3,1 q 1.38,0.57 2.76,1.11 3.66,1.44 7.36,2.77 c 4.67,1.69 9.37,3.28 14.08,4.87 l 4,1.36 a 18.83,18.83 0 0 1 0.59,-3.5 149.64,149.64 0 0 0 5.25,-38.88 141,141 0 0 0 -4.15,-35 C 255,70.3 252.3,61.92 247.2,54.6 c -4,-5.68 -7.11,-6.22 -13,-2.48 a 67.9,67.9 0 0 0 -10.72,8.94 c -12.92,12.58 -24.21,26.57 -34.67,41.2 a 14.17,14.17 0 0 1 -5.31,4.77 c 0.22,0.51 0.42,1 0.59,1.55 0.29,0.79 0.57,1.59 0.91,2.42 z"
           class="cls-10" />
        <path
           id="path45"
           transform="translate(0,-49.74)"
           d="m 204.13,112.63 c 7.06,-14 15.62,-27 27,-37.95 4.7,-4.51 8.3,-3.48 10.81,3 a 77,77 0 0 1 5.19,32.71 c 0.8,9.66 -1.44,19 -3.07,28.51 -0.75,4.37 -3.3,5.73 -7.43,5.1 a 29.66,29.66 0 0 1 -9.73,-3.68 c -6.85,-3.74 -13.62,-7.67 -19.53,-12.8 -5.62,-4.87 -6.57,-8.3 -3.24,-14.89 z"
           class="cls-10" />
        <path
           id="path47"
           transform="translate(0,-49.74)"
           d="m 77.86,148.89 a 29.16,29.16 0 0 0 12.6,-3.66 c 2,-1.17 3.6,-2.84 5.49,-4.13 a 47.66,47.66 0 0 1 6,-3 c 8.41,-4.14 13.12,-12.93 18.24,-20.38 l -13.71,-1.79 0.32,1 v -4 c 0.36,-1.42 -2.59,2.42 -2.72,2.61 a 11.29,11.29 0 0 0 -1.61,5.78 c -0.57,9.64 14.44,9.61 15,0 l 0.06,-1 -1,3.79 c 0.88,-1.58 2.8,-2.62 3.73,-4.32 a 9.79,9.79 0 0 0 0.71,-7.78 c -2.07,-6.38 -10,-7.12 -13.71,-1.79 -3.71,5.33 -6.91,12.14 -12.86,15 a 50.62,50.62 0 0 0 -9,5.34 c -2.35,1.76 -4.45,3.13 -7.48,3.39 -9.54,0.83 -9.63,15.84 0,15 z"
           class="cls-9" />
        <path
           id="path49"
           transform="translate(0,-49.74)"
           d="m 70.72,140 c 7,0.06 17.81,-0.19 15.65,-10.45 -1.64,-7.8 -5.5,-15.71 -8.17,-23.23 l -12.54,7.3 c 7.77,8.35 22,21.17 34.39,17.18 5.47,-1.76 13.66,-5.26 15.77,-11 2.24,-6 -0.85,-14.69 -1.84,-20.82 l -13.71,5.78 c 0.81,1.32 1,1.41 0.52,0.28 l 13.71,-1.8 c -4,-8 -8.92,-16 -11.46,-24.54 -2.34,-7.88 -6.14,-14.59 -15.26,-15.1 -9.64,-0.54 -9.61,14.46 0,15 -1.45,-0.08 -0.28,-0.42 0,1.16 a 29.26,29.26 0 0 0 1,3.66 64.57,64.57 0 0 0 3.52,8.88 c 2.94,6.23 6.16,12.35 9.25,18.51 2.87,5.73 12.3,4.33 13.71,-1.79 1,-4.17 0.59,-8.32 -2,-11.83 -5.15,-6.89 -15.1,-2.83 -13.71,5.78 0.17,1 1.77,12.48 2,12.47 q 2.59,-3.81 -0.38,-1.73 l -2.91,1.46 c -1.14,0.57 -2.43,1.47 -3.64,1.4 -2.69,-0.15 -6.94,-3.79 -9.11,-5.31 a 58.56,58.56 0 0 1 -9.23,-8.29 c -5,-5.32 -15.07,0.18 -12.54,7.3 2.71,7.6 6.33,15.38 8.18,23.23 v -4 l -0.23,0.72 5.24,-5.24 c -1.78,0.48 -4.36,0 -6.2,0 -9.66,-0.09 -9.67,14.91 0,15 z"
           class="cls-9" />
        <path
           id="path51"
           transform="translate(0,-49.74)"
           d="m 202.12,117.57 c 2.24,0.49 4.16,1.89 6,3.2 a 111.94,111.94 0 0 0 32.94,15.68 c -2.43,2.11 -6.18,1 -9,-0.47 a 60.62,60.62 0 0 1 -11.13,-7.29"
           class="cls-10" />
        <path
           id="path53"
           transform="translate(0,-49.74)"
           d="m 200.13,124.8 c 3.1,1 5.87,3.61 8.61,5.33 a 111.45,111.45 0 0 0 9.89,5.54 127.52,127.52 0 0 0 20.48,8 l -1.8,-13.7 c -1.5,1 -9.54,-5.35 -11.09,-6.59 -3.18,-2.55 -7.49,-3 -10.61,0 -2.65,2.59 -3.15,8.08 0,10.61 7.58,6.07 19.39,15.26 29.27,8.93 5.43,-3.48 4.53,-11.84 -1.79,-13.71 a 106,106 0 0 1 -20,-8.1 c -6.36,-3.4 -12.08,-8.57 -19,-10.78 -9.22,-3 -13.16,11.52 -4,14.46 z"
           class="cls-10" />
        <path
           id="path55"
           transform="translate(0,-49.74)"
           d="m 242.57,127.43 q -2.17,-23.07 -5.57,-46 c -0.46,-3.14 -1.12,-6.58 -3.61,-8.54 q -13.71,14.73 -26.08,30.65 c -1.06,1.36 -2.17,3.07 -1.58,4.69 0.54,1.47 2.21,2.13 3.69,2.63 a 131.59,131.59 0 0 1 26.88,12.76 146.85,146.85 0 0 1 -10.57,-22.67 12.14,12.14 0 0 1 -1,-5.31 c 0.2,-1.81 1.41,-3.65 3.21,-3.95 -1.48,6.15 -10.35,9 -10.37,15.36 a 98,98 0 0 0 23.54,-3.34 2.39,2.39 0 0 0 2.07,-3.07 l -0.26,-9.25"
           class="cls-10" />
        <path
           id="path57"
           transform="translate(0,-49.74)"
           d="m 250.07,127.43 q -1.56,-16.35 -3.69,-32.62 c -1.17,-8.84 -0.82,-20.61 -7.68,-27.24 -2.83,-2.73 -7.81,-3 -10.61,0 q -8.47,9.15 -16.47,18.71 -4.29,5.16 -8.43,10.43 c -2.2,2.81 -4.61,5.57 -5,9.29 -0.85,8.7 6.74,11.07 13.34,13.57 a 125.26,125.26 0 0 1 21,10.52 c 6.52,4 13.88,-3.87 10.26,-10.27 -2.2,-3.89 -4.27,-7.85 -6.14,-11.92 -0.85,-1.85 -1.65,-3.71 -2.4,-5.61 -0.43,-1.11 -0.86,-2.22 -1.27,-3.34 q -0.32,-3.67 -3.07,0 l -9.22,-9.23 c -0.8,2.5 -4.13,4.42 -5.83,6.35 A 18,18 0 0 0 210,107 c -0.34,4 3.71,7.61 7.5,7.5 8.39,-0.24 17.5,-1 25.53,-3.61 9.06,-3 7.54,-11.79 7.32,-19.55 -0.28,-9.64 -15.28,-9.68 -15,0 0.1,3.48 0.36,7 0.21,10.49 l 1,-3.78 q 4.65,-2.5 0.69,-1.17 l -1.78,0.43 q -3.14,0.72 -6.3,1.23 a 93.37,93.37 0 0 1 -11.69,1 L 225,107 c 0.1,-1.16 3.71,-3.61 4.56,-4.47 a 22,22 0 0 0 5.54,-8.9 c 1.61,-5.06 -3.88,-11.36 -9.22,-9.23 -9.08,3.64 -9.92,11.8 -6.79,20.17 a 160.9,160.9 0 0 0 10.7,22.79 l 10.26,-10.27 a 140.53,140.53 0 0 0 -14.66,-7.88 q -3.67,-1.68 -7.43,-3.18 c -1.08,-0.44 -2.17,-0.86 -3.27,-1.27 -0.82,-0.31 -1.64,-0.61 -2.47,-0.89 -1.12,-0.53 -1.13,-0.35 0,0.53 l 1,3.78 c 0,0 1.27,-1.78 1.75,-2.4 1,-1.26 2,-2.5 3,-3.75 Q 221.28,98 224.7,94 c 4.54,-5.37 9.22,-10.61 14,-15.77 h -10.61 c 2,1.92 1.86,6.41 2.23,9 q 1,6.66 1.8,13.32 1.68,13.41 2.95,26.88 c 0.92,9.52 15.92,9.62 15,0 z"
           class="cls-10" />
        <path
           id="path59"
           transform="translate(0,-49.74)"
           d="m 90.07,103 c -3.74,-3.15 -3.3,-7.62 -2.95,-12.13 0.19,-2.36 0.43,-4.73 0.65,-7.09 0.11,-1.24 -0.09,-5.39 0.8,-6.39 l -7.3,1.93 q -2.58,-1.74 -0.52,0.82 l 0.86,1.52 c 0.84,1.52 1.64,3.08 2.39,4.65 a 79.35,79.35 0 0 1 4.06,10.39 c 2.15,6.74 2.78,13.92 6,20.28 v -7.57 l 1.41,-1.58 3.79,-1 -0.93,-0.07 3.78,1 C 99.35,105.9 99.7,100.1 99.43,97.3 A 21.67,21.67 0 0 0 94.49,84.62 c -2.59,-3.16 -7.91,-2.64 -10.6,0 -3.13,3.06 -2.56,7.49 0,10.6 1.15,1.4 0.68,4.69 0.83,6.34 a 29,29 0 0 0 2.15,9.37 c 2.47,5.62 7.28,12.44 14.38,10.61 a 9.21,9.21 0 0 0 6.52,-6.34 c 1,-3.51 -1.36,-6.73 -2.16,-10 -1.7,-7.1 -3.35,-13.93 -6.17,-20.7 -2.39,-5.74 -5.3,-14.16 -10.43,-18 -7,-5.3 -13.41,1.41 -15.06,8.15 a 91,91 0 0 0 -2.06,20.5 c 0,7 2.08,14 7.56,18.55 7.35,6.17 18,-4.39 10.6,-10.6 z"
           class="cls-9" />
      </g>
      <path
         id="path63"
         transform="translate(0,-49.74)"
         d="m 72.23,106 c 1,-10.3 1.49,-20.13 6.1,-29.3 2.78,-5.53 5,-6.2 10.29,-2.43 8.28,6 14.06,13.76 19.8,21.52 a 122.57,122.57 0 0 1 7.45,11.21 c 3.21,5.52 2,9.43 -3.45,13.31 A 100.73,100.73 0 0 1 87.5,133.7 c -7.24,2.52 -9.73,1.38 -11.74,-5.17 C 73.45,121 73.42,113.14 72.23,106 Z"
         class="cls-11" />
      <path
         id="path65"
         transform="translate(0,-49.74)"
         d="m 247.15,105.41 c 0.8,8.4 -1.44,16.57 -3.07,24.8 -0.75,3.79 -3.3,5 -7.43,4.43 a 32.55,32.55 0 0 1 -9.73,-3.2 c -6.85,-3.25 -13.62,-6.67 -19.53,-11.13 -5.64,-4.27 -6.59,-7.25 -3.26,-13 7.06,-12.17 15.62,-23.51 27,-33 4.7,-3.92 8.3,-3 10.81,2.64 a 59.21,59.21 0 0 1 5.21,28.46 z"
         class="cls-12" />
      <path
         id="path67"
         transform="translate(0,-49.74)"
         d="m 115.56,222.94 c -2.43,-1.4 -14.14,-9.49 -15.63,-11.87 -7.62,-12.13 -27.14,-48.08 7.21,-50.42 41.36,-2.8 52.34,37.54 52.34,37.54 0,0 8.82,-31 38.3,-36 37.53,-6.37 36.51,22.21 25.27,39.57 -11.24,17.36 -20.84,22.47 -20.84,22.47 0,0 -11.51,7.26 -18.73,19.15 -7.22,11.89 -8.17,17.87 -14.3,20.17 -6.13,2.3 -20.11,4.37 -27.32,-11 -6,-12.76 -15.96,-23.64 -26.3,-29.61 z"
         class="cls-12" />
      <path
         id="path69"
         transform="translate(0,-49.74)"
         d="m 159.3,265.11 c -6.12,-0.3 -13,-3.18 -17.44,-12.54 -6,-12.78 -16,-23.66 -26.3,-29.63 -2.43,-1.4 -14.14,-9.49 -15.63,-11.87 -7.62,-12.13 -27.14,-48.08 7.21,-50.42 41.36,-2.8 52.34,37.54 52.34,37.54"
         class="cls-13" />
      <path
         id="path71"
         transform="translate(0,-49.74)"
         d="m 89.67,232.07 c 0,0 -4.55,52.85 -5.67,57.51 L 22.56,255.71 c -1.6,-0.88 7.4,-4.41 9.12,-5 z"
         class="cls-9" />
      <path
         id="path73"
         transform="translate(0,-49.74)"
         d="m 225.88,229.48 c 0,0 5,55.23 6.21,60.1 l 67.35,-35.4 c 1.75,-0.92 -8.11,-4.61 -10,-5.17 z"
         class="cls-9" />
      <path
         id="path75"
         transform="translate(0,-49.74)"
         d="m 159.48,198.19 c 0,0 8.82,-31 38.3,-36 37.53,-6.37 36.51,22.21 25.27,39.57 -11.24,17.36 -20.84,22.47 -20.84,22.47 0,0 -11.51,7.26 -18.73,19.15 -7.22,11.89 -8.17,17.87 -14.3,20.17 a 25.57,25.57 0 0 1 -9.88,1.56"
         class="cls-12" />
      <path
         id="path77"
         transform="translate(0,-49.74)"
         d="m 146.9,239.79 h 24.79 c 3.43,0 5.35,3.49 3.23,5.87 l -12.19,13.67 a 4.47,4.47 0 0 1 -6.42,0 l -12.6,-13.67 c -2.18,-2.33 -0.27,-5.87 3.19,-5.87 z"
         class="cls-14" />
      <path
         id="path79"
         transform="translate(0,-49.74)"
         d="m 257.08,148.54 c 0,0.27 -4.71,6.61 -4.71,6.86 a 14.16,14.16 0 0 0 0.54,3.74 28.93,28.93 0 0 0 1.69,4.46 c 0.59,1.29 1.16,2.43 1.49,3.19 1.45,3.28 3,6.39 4.54,9.4 3,5.91 5.73,11.55 7.13,17.24 a 15.33,15.33 0 0 1 0.5,3.48 5.3,5.3 0 0 1 -0.19,1.53 1.81,1.81 0 0 1 -0.35,0.69 1.75,1.75 0 0 1 -0.68,0.49 8.64,8.64 0 0 1 -2.87,0.62 c -1.34,0.13 -3,0.14 -4.74,0.21 a 60,60 0 0 0 -12.19,1.88 c -3.88,1 -7.59,2.18 -11.16,3.34 -5.39,1.76 -10.94,3.56 -16.45,5.76 a 93.11,93.11 0 0 0 -16.16,8.15 62.27,62.27 0 0 0 -13.56,12.17 103.17,103.17 0 0 0 -10.07,14.46 c -1,1.71 -1.93,3.36 -2.86,4.85 a 31.44,31.44 0 0 1 -2.83,4 21.09,21.09 0 0 1 -9,6.1 18.43,18.43 0 0 1 -5.87,1 9.67,9.67 0 0 1 -2,-0.21 13.55,13.55 0 0 1 -3.77,-1.34 19.83,19.83 0 0 1 -3.63,-2.51 39.18,39.18 0 0 1 -6.77,-8.12 c -2.12,-3.17 -4.17,-6.72 -6.62,-10.26 -5.49,-7.9 -12.36,-15.4 -20.93,-20.8 -8.25,-5.17 -17.31,-8.37 -26.25,-10.69 -11.18,-2.87 -22.28,-4.44 -32.8,-6.9 a 15.51,15.51 0 0 1 -2.07,-0.59 2.32,2.32 0 0 1 -0.45,-0.22 l -0.08,-0.05 v 0 l -0.07,0.07 0.07,-0.07 v 0 l -0.07,0.07 0.07,-0.07 v 0 a 2.48,2.48 0 0 1 -0.25,-0.55 10.07,10.07 0 0 1 -0.34,-1.37 25.33,25.33 0 0 1 -0.39,-4.46 41.82,41.82 0 0 1 3.4,-15.26 c 2.69,-6.69 6.86,-14.5 10.31,-21.88 L 58.83,156 a 10.12,10.12 0 0 0 -3.2,0.14 l -1.27,0.25 c -3.11,6.72 -5.13,10.57 -8.27,18.29 a 52.28,52.28 0 0 0 -4.2,19.38 36.15,36.15 0 0 0 0.57,6.43 20,20 0 0 0 1,3.59 12.38,12.38 0 0 0 2.54,4 11.92,11.92 0 0 0 2.19,1.75 14.41,14.41 0 0 0 3.18,1.45 c 1,0.33 1.88,0.54 2.64,0.72 11.16,2.59 22.17,4.16 32.55,6.84 8.29,2.14 16.26,5 23.15,9.36 6.89,4.36 12.84,10.8 17.72,17.8 2.12,3 4.14,6.53 6.5,10.09 a 49.58,49.58 0 0 0 8.74,10.34 30.08,30.08 0 0 0 5.71,3.93 24.66,24.66 0 0 0 6.85,2.42 23.53,23.53 0 0 0 4.32,0.39 27.82,27.82 0 0 0 9.26,-1.65 32.16,32.16 0 0 0 13.68,-9.3 41.77,41.77 0 0 0 3.84,-5.36 c 1.1,-1.77 2.06,-3.48 3,-5.07 a 92.8,92.8 0 0 1 9,-12.92 51.8,51.8 0 0 1 11.15,-10.05 82,82 0 0 1 14.26,-7.16 c 5.06,-2 10.39,-3.76 15.77,-5.52 3.56,-1.16 7,-2.28 10.44,-3.13 a 49.14,49.14 0 0 1 10,-1.56 l 3.38,-0.11 a 26.13,26.13 0 0 0 6.2,-0.9 14.91,14.91 0 0 0 3.41,-1.46 12.5,12.5 0 0 0 3.18,-2.64 12.77,12.77 0 0 0 2.57,-4.72 16.42,16.42 0 0 0 0.65,-4.7 25.53,25.53 0 0 0 -0.82,-6.13 c -1.81,-7.24 -5,-13.59 -8,-19.52 -1.53,-3 -3,-6 -4.31,-8.91 -0.34,-0.77 -0.69,-1.5 -1,-2.23 -0.52,-1.09 -1,-2.17 -1.33,-3.07 a 12.41,12.41 0 0 0 -1.29,-2 v 0"
         class="cls-12" />
      <path
         id="path81"
         transform="translate(0,-49.74)"
         d="m 159.3,262.16 a 9.67,9.67 0 0 1 -2,-0.21 13.55,13.55 0 0 1 -3.77,-1.34 19.83,19.83 0 0 1 -3.63,-2.51 39.18,39.18 0 0 1 -6.77,-8.12 c -2.12,-3.17 -4.17,-6.72 -6.62,-10.26 -5.49,-7.9 -12.36,-15.4 -20.93,-20.8 -8.25,-5.17 -17.31,-8.37 -26.25,-10.69 -11.18,-2.87 -22.28,-4.44 -32.8,-6.9 a 15.51,15.51 0 0 1 -2.07,-0.59 2.32,2.32 0 0 1 -0.45,-0.22 l -0.08,-0.05 v 0 l -0.07,0.07 0.07,-0.07 v 0 l -0.07,0.07 0.07,-0.07 v 0 a 2.48,2.48 0 0 1 -0.25,-0.55 10.07,10.07 0 0 1 -0.34,-1.37 25.33,25.33 0 0 1 -0.39,-4.46 41.82,41.82 0 0 1 3.4,-15.26 c 2.69,-6.69 6.86,-14.5 10.31,-21.88 l -3.39,-8.08 c -1.57,-1 -7.36,5.67 -7.58,7.3 l -1.27,0.25 c -3.11,6.72 -5.13,10.57 -8.27,18.29 a 52.28,52.28 0 0 0 -4.2,19.38 36.15,36.15 0 0 0 0.57,6.43 20,20 0 0 0 1,3.59 12.38,12.38 0 0 0 2.54,4 11.92,11.92 0 0 0 2.19,1.75 14.41,14.41 0 0 0 3.18,1.45 c 1,0.33 1.88,0.54 2.64,0.72 11.16,2.59 22.17,4.16 32.55,6.84 8.29,2.14 16.26,5 23.15,9.36 6.89,4.36 12.78,10.77 17.66,17.77 2.12,3 4.14,6.53 6.5,10.09 a 49.58,49.58 0 0 0 8.74,10.34 30.08,30.08 0 0 0 5.71,3.93 24.66,24.66 0 0 0 6.85,2.42 23.53,23.53 0 0 0 4.32,0.39"
         class="cls-11" />
      <path
         id="path83"
         transform="translate(0,-49.74)"
         d="M 81.07,468.79 H 63.39 a 1.43,1.43 0 0 0 -0.38,-0.17 c -1.77,-0.3 -3.55,-0.53 -5.3,-0.89 A 69.37,69.37 0 0 1 35.78,459.63 73.6,73.6 0 0 1 8.46,431.07 71.24,71.24 0 0 1 0.12,400.66 68.58,68.58 0 0 1 1.06,384.61 71.15,71.15 0 0 1 65.32,325.46 c 1,-0.09 2,-0.24 3.05,-0.36 h 9.1 a 6,6 0 0 0 0.73,0.19 c 2.44,0.29 4.88,0.49 7.3,0.87 a 62.65,62.65 0 0 1 21.89,7.84 73.24,73.24 0 0 1 28.44,29.18 70.56,70.56 0 0 1 8.07,29.09 77.33,77.33 0 0 1 -1.26,19.86 69.83,69.83 0 0 1 -19.31,36.29 65.71,65.71 0 0 1 -15.17,11.5 72.58,72.58 0 0 1 -23.08,8.14 z M 43.18,418.4 42.92,418.32 c -0.1,-1.56 -0.22,-3.13 -0.27,-4.69 -0.14,-4 -0.24,-8 -0.35,-12 0,-0.8 -0.26,-1.17 -1.21,-1.16 -8.87,0 -17.74,0 -26.61,0 a 3,3 0 0 0 -0.85,0.05 c -0.59,0.15 -1,0.45 -0.91,1.19 0.31,2.32 0.47,4.66 0.91,7 a 57.35,57.35 0 0 0 6.19,17.09 62.38,62.38 0 0 0 18.8,21 56.41,56.41 0 0 0 25.75,9.63 62.45,62.45 0 0 0 17.85,-0.28 57.13,57.13 0 0 0 19.72,-6.9 58.87,58.87 0 0 0 22.88,-23.74 57.31,57.31 0 0 0 6.4,-21.21 c 0.12,-1.18 0.14,-2.36 0.2,-3.54 h -29.61 v 16.31 c 0,0.2 0,0.41 0,0.6 -0.07,0.49 -0.34,0.58 -0.7,0.28 a 6.21,6.21 0 0 1 -0.72,-0.73 c -3.14,-3.48 -6.29,-7 -9.41,-10.45 -2.52,-2.81 -5,-5.64 -7.52,-8.46 -0.75,-0.85 -0.84,-1.6 -0.32,-2.18 l 15.17,-17 c 1,-1.11 2,-2.22 3,-3.33 l 0.25,0.07 v 16.58 h 29.94 c -0.22,-2.09 -0.34,-4.06 -0.65,-6 A 54.1,54.1 0 0 0 124.09,367.6 57.75,57.75 0 0 0 113.73,354 C 102.48,343.65 89.28,337.87 73.93,337.23 a 55.91,55.91 0 0 0 -19.26,2.63 54.5,54.5 0 0 0 -13.89,6.44 61.12,61.12 0 0 0 -21.43,23 55.38,55.38 0 0 0 -6.26,20.38 c -0.12,1.06 -0.14,2.13 -0.22,3.35 l 29.55,-0.34 c 0,-1.49 0,-2.8 0,-4.1 q 0.11,-6 0.24,-12.09 a 3.15,3.15 0 0 1 0.27,-0.84 l 0.64,0.71 11,12.3 c 2.2,2.47 4.41,4.95 6.59,7.44 0.44,0.5 0.89,1 0.21,1.76 -4.35,4.89 -8.65,9.82 -13,14.73 z"
         class="cls-15" />
      <path
         id="path85"
         transform="translate(0,-49.74)"
         d="m 105,357.81 a 18.06,18.06 0 0 1 -1.16,2 c -4.38,5.56 -8.79,11.1 -13.18,16.67 q -7.94,10.05 -15.84,20.13 a 1.39,1.39 0 0 0 0.17,1.92 c 2.28,2.86 4.58,5.7 6.83,8.58 q 7.9,10.14 15.76,20.3 c 2.38,3.07 4.73,6.17 7.09,9.25 l 0.4,0.57 H 39.13 a 6.63,6.63 0 0 1 0.56,-1.17 c 1.46,-2 2.94,-3.92 4.44,-5.87 q 4.38,-5.7 8.8,-11.38 7.92,-10.23 15.87,-20.43 a 1.37,1.37 0 0 0 0,-2 Q 59.91,385.23 51.05,374.04 L 38.88,358.72 a 6.93,6.93 0 0 1 -0.53,-0.91 z"
         class="cls-16" />
    </g>
  </g>
</svg>
